<svg clip-rule="evenodd" fill-rule="evenodd" height="11in" image-rendering="optimizeQuality" shape-rendering="geometricPrecision" text-rendering="geometricPrecision" viewBox="-6.258 -20.98 25.625 15.779" width="816" xmlns="http://www.w3.org/2000/svg"><g fill-rule="nonzero"><path d="m-6.258-20.98 4.33 10.51 4.362-10.51zm9.798 0-4.914 11.964 1.504 3.78 6.45-15.744zm14.864 3.49s-.706-3.033-3.593-3.49h-7.187l-4.883 11.964 1.444 3.573 5.035-12.047h9.183z" fill="#eda900"/><path d="m9.866-16.244-4.422 11.009h.823a336190.934 336190.934 0 0 0 4.443 0h1.917c.617 0 1.225.034 1.84-.078.31-.057.622-.205.914-.358a6.765 6.765 0 0 0 2.37-2.031 8.411 8.411 0 0 0 1.061-1.95c.152-.392.311-.822.399-1.25.131-.64.156-1.314.15-1.976-.007-.656-.016-1.32-.09-1.97-.054-.466-.14-1.127-.467-1.396h-3.04s1.873 2.742.214 5.774c0 0-.86 2.202-4.115 1.787l-2.12-.042 3.041-7.52h-2.918z" fill="#ece6e7"/></g></svg>